<svg class="single-step__number-decor single-step__number-decor--four d-none position-absolute" xmlns="http://www.w3.org/2000/svg" width="128" height="91" viewBox="0 0 128 91">
                                                    <title>Decor</title>
                                                    <path d="M121.37,54.54a13.45,13.45,0,0,1-6.64,24L19.57,90.09a13.15,13.15,0,0,1-9.88-2.68,14,14,0,0,1-5.12-8.7A13.21,13.21,0,0,1,7.28,68.43L49,15.06a13.49,13.49,0,0,1,18.9-2.31l53.49,41.79Zm.18-.22-53.5-41.8a13.76,13.76,0,0,0-19.31,2.35L7.05,68.24a13.75,13.75,0,0,0,2.34,19.3l.11.09a13.52,13.52,0,0,0,10.1,2.74L114.78,78.8a13.74,13.74,0,0,0,6.77-24.48Z" style="fill: #5ad9ac;stroke: #5ad9ac;stroke-miterlimit: 10;stroke-width: 0.25px"/>
                                                    <path d="M123.57,54.65a13.86,13.86,0,0,1-9.76,23.73l-99-.33A13.72,13.72,0,0,1,5,74,14.46,14.46,0,0,1,.8,64.45a13.55,13.55,0,0,1,4.06-10.2L54.2,4.91A14,14,0,0,1,73.89,5l49.68,49.68Zm.2-.19L74.09,4.77A14.21,14.21,0,0,0,54,4.71L4.65,54.05a14.2,14.2,0,0,0,0,20.08l.1.1a14,14,0,0,0,10,4.11l99,.33a14.17,14.17,0,0,0,10-24.22Z" style="fill: #5ad9ac;stroke: #5ad9ac;stroke-miterlimit: 10;stroke-width: 0.25px"/>
                                                </svg>