<svg width="123px" height="71px" viewBox="0 0 123 71" version="1.1" xmlns="http://www.w3.org/2000/svg" xmlns:xlink="http://www.w3.org/1999/xlink"><title>Icon Hands</title><g id="Page-1" stroke="none" stroke-width="1" fill="none" fill-rule="evenodd"> <g id="Kafene---Home-Page---Candidate-5.4.4" transform="translate(-657.000000, -1159.000000)" fill="#5AD9AC"> <g id="Group-2" transform="translate(205.000000, 1147.000000)"> <g id="noun_Handshake_741355" transform="translate(452.000000, 12.000000)"> <g id="Group"> <polygon id="Path" points="34.9377263 8.25234246 33.1888465 11.8177881 41.4576736 16.0138133 49.7725267 16.0138133 49.7725267 12.0278484 42.3781407 12.0278484 34.9377263 8.25234246"> </polygon> <path d="M47.7705177,12.4794582 L38.3204286,26.8664 C37.9169125,27.4786481 37.8783654,28.2666697 38.2201468,28.9164721 C38.5619281,29.5662745 39.2284961,29.9722606 39.9542523,29.9726625 L49.6344582,29.9726625 C51.6028534,29.9726625 53.4440548,28.9721853 54.5359254,27.3100379 L56.131395,24.8809909 C56.4962814,24.325746 57.1073943,23.9937151 57.7652148,23.9937151 L60.3655259,23.9937151 C60.7527586,23.9937151 61.1325216,24.1093081 61.4547378,24.3285361 L91.4925231,44.6473909 C92.9210467,45.6139874 93.2436949,47.5352225 92.2135536,48.9291144 L92.0908252,49.0925389 C91.176143,50.3301811 89.5321515,50.6590232 88.2248796,49.863026 L72.3852381,40.2173895 C71.7823693,39.8078425 71.0063298,39.768341 70.3661127,40.1146132 C69.7258955,40.4608853 69.3254488,41.136709 69.3242169,41.8729939 C69.3229851,42.6092789 69.7211681,43.2864789 70.3602229,43.6349558 L86.1998605,53.2805923 C89.2069781,55.1117446 93.1317037,54.3376702 95.2357403,51.4900968 L95.3584687,51.3266723 C97.7104481,48.1438793 96.9324952,43.5372996 93.6709508,41.3306695 L63.6331694,21.0038428 C62.6650796,20.3489488 61.5289521,19.9993796 60.3655259,19.9993796 L57.7652148,19.9993796 C55.7968196,19.9993796 53.9556183,20.9998568 52.8637476,22.6620042 L51.268278,25.0910512 C50.9033917,25.6462961 50.2922787,25.978327 49.6344582,25.978327 L43.6284352,25.978327 L51.0381651,14.6976477 C52.1314379,13.0335074 53.9687001,12.0354218 55.9396284,12.0354218 L68.3121898,12.0354218 C68.8592798,12.0354218 69.3969717,12.1071691 69.9229995,12.2626218 L81.1449808,15.5167635 C82.5622684,15.9281151 84.0835982,15.7878091 85.4021257,15.118167 L87.9640788,13.8179453 C88.9362212,13.3234936 89.3293645,12.1228142 88.8421893,11.1361525 C88.355014,10.1494908 87.1720033,9.75047533 86.1998605,10.2449263 L83.6379036,11.5447495 C83.1986379,11.7679635 82.6986953,11.8157951 82.2265266,11.6762863 L71.0045452,8.42214456 C70.1271057,8.16704281 69.2247631,8.03949193 68.3121898,8.03949193 L55.9396284,8.03949193 C52.6581294,8.04188351 49.5907708,9.70841544 47.7705177,12.4794582 Z" id="Path"></path> <polygon id="Path" points="99.2934485 30.7200309 91.438829 40.6849432 94.5070397 43.1681993 102.361659 33.203287"> </polygon> <polygon id="Path" points="21.7060675 32.5416168 18.9293369 35.359694 26.7839565 43.3316239 29.560687 40.5135467"> </polygon> <path d="M39.854534,0.077925614 C39.2081856,0.112210175 38.6199836,0.46751783 38.2820745,1.02778105 L15.7460681,37.2594049 L3.64197646,30.2373305 C3.03143722,29.8445328 2.25764394,29.8239079 1.6276325,30.1836395 C0.997621055,30.5433711 0.613258003,31.2252943 0.626696551,31.9588266 C0.64085393,32.692359 1.05058192,33.3588956 1.69366267,33.6939593 L15.4239058,41.6658891 C16.3380691,42.1970156 17.5022944,41.9015574 18.0625671,40.996247 L41.6034161,3.15309754 C42.0050273,2.52467516 42.0255929,1.72078217 41.6566545,1.07205393 C41.287716,0.423325695 40.5915691,0.0393006892 39.854534,0.077925614 L39.854534,0.077925614 Z" id="Path"></path> <path d="M40.5985746,38.0613811 C39.1349055,38.3722863 37.7873383,39.2384365 36.909052,40.591273 L29.1234671,52.5806568 C27.3669204,55.2863298 28.1242405,58.988494 30.7956421,60.762647 L30.9950749,60.9021558 C30.9976276,60.9021608 31.0001804,60.9021608 31.0027331,60.9021558 C33.6743638,62.6759102 37.3155034,61.9110035 39.0721274,59.2053305 L46.8577128,47.2163453 C48.614367,44.5102737 47.8574252,40.8077109 45.1855389,39.0339565 L44.9861101,38.8944477 C44.9834919,38.8944424 44.9808737,38.8944424 44.9782555,38.8944477 C43.6423771,38.0071719 42.0620551,37.7524688 40.5983821,38.0613811 L40.5985746,38.0613811 Z M42.8230303,42.2263158 L42.8308849,42.2263158 L43.0303137,42.3658246 C43.0329319,42.3658299 43.0355501,42.3658299 43.0381684,42.3658246 C43.9436568,42.9669081 44.1733415,44.0989221 43.5751062,45.0204772 L35.7895201,57.0094625 C35.192968,57.9282274 34.0630135,58.1649937 33.1585293,57.5698891 L32.9514265,57.4303804 C32.9488738,57.4303753 32.946321,57.4303753 32.9437683,57.4303804 C32.0378027,56.8284996 31.8085362,55.6968842 32.4068312,54.7753291 L40.1924161,42.7863439 C40.7890609,41.8675789 41.9190539,41.6308126 42.8234073,42.2259172 L42.8230303,42.2263158 Z" id="Shape" fill-rule="nonzero"></path> <path d="M45.0551522,45.8463691 C43.5752044,46.1612604 42.2114932,47.0361796 41.3272751,48.4077502 L35.9502362,56.7455916 C34.1818378,59.488334 34.9508282,63.2339453 37.653093,65.0288253 C40.3555762,66.8233067 44.0383128,66.0352814 45.8068628,63.2929375 L51.1839037,54.9550961 C52.9523006,52.2119551 52.18362,48.4739172 49.4810457,46.6794358 C48.1298273,45.7817965 46.5351,45.5326737 45.0551522,45.8463691 L45.0551522,45.8463691 Z M47.3332982,50.0192758 C48.2718349,50.6422821 48.5153202,51.8221277 47.9009201,52.7751719 L42.5238793,61.1130133 C41.9096284,62.0652604 40.7394668,62.3123902 39.8008398,61.6889853 C38.8619967,61.0655804 38.6188177,59.8861333 39.2332218,58.9330891 L44.6102626,50.5952477 C45.2246274,49.6422035 46.3946358,49.3954723 47.3332982,50.0192758 L47.3332982,50.0192758 Z" id="Shape" fill-rule="nonzero"></path> <path d="M50.2787805,52.0198316 C48.8007375,52.3426947 47.4414327,53.2351523 46.5662475,54.6123032 L43.0684872,60.1165221 C41.318152,62.8712225 42.106473,66.6024842 44.8173654,68.3842105 C47.5282184,70.1663354 51.2130875,69.3639607 52.9634659,66.6092604 L56.4612262,61.1050414 C58.2115693,58.3503411 57.4232325,54.6190793 54.7123441,52.837353 C53.3569235,51.9464898 51.7568236,51.6977656 50.2787805,52.0198316 L50.2787805,52.0198316 Z M52.5799406,56.177193 C53.5215524,56.7958147 53.7710033,57.9840309 53.1628986,58.9410611 L49.6651384,64.4528533 C49.057073,65.4098835 47.89909,65.6633909 46.9574429,65.0443705 C46.0158428,64.4257488 45.7587022,63.2379312 46.3668108,62.2809011 L49.8722451,56.7687102 C50.4803183,55.81168 51.6382895,55.5581726 52.5799406,56.177193 L52.5799406,56.177193 Z" id="Shape" fill-rule="nonzero"></path> <path d="M31.2712146,38.0147453 C29.7931688,38.3376084 28.4415267,39.2296674 27.56635,40.6068182 L24.0609193,46.1110372 C22.3106238,48.8657375 23.1065677,52.5973979 25.8174699,54.3787256 C28.5283296,56.1608505 32.2055365,55.3584758 33.9558988,52.6037754 L37.4536591,47.0999551 C39.2039633,44.3452547 38.4156737,40.6135944 35.7047794,38.8318681 C34.349354,37.9410049 32.7492604,37.6922807 31.2712146,38.0147453 L31.2712146,38.0147453 Z M33.5723727,42.17968 C34.5139782,42.7983018 34.7634288,43.978546 34.1553327,44.9355761 L30.6575725,50.4473684 C30.0495342,51.4043986 28.8915162,51.657906 27.9498766,51.0388856 C27.0082801,50.4202639 26.7588115,49.2324463 27.3669165,48.2754161 L30.8646768,42.7636239 C31.4727237,41.8065937 32.6307236,41.5606596 33.5723727,42.17968 Z" id="Shape" fill-rule="nonzero"></path> <path d="M81.4343526,1.09117975 C81.0784701,1.73844536 81.1058742,2.53268399 81.5054961,3.15309754 L105.046345,40.996247 C105.606617,41.9015574 106.770843,42.1970156 107.685006,41.6658891 L121.41525,33.6939593 C122.058329,33.3588942 122.468054,32.6923581 122.481851,31.9588271 C122.495649,31.2252961 122.111286,30.5433744 121.481276,30.183643 C120.851266,29.8239116 120.077474,29.8445352 119.466935,30.2373305 L107.362841,37.2594049 L84.8268338,1.02778105 C84.4803716,0.448788871 83.8678852,0.0880249261 83.200684,0.0699536842 C82.4706156,0.0505438582 81.7902351,0.443914142 81.4343526,1.09117975 Z" id="Path"></path> <path d="M67.3687165,47.8859874 C66.4944944,47.9078439 65.7394698,48.512867 65.5156976,49.3708649 C65.2919254,50.2288627 65.6531485,51.1337724 66.4022291,51.5917389 L77.4554579,58.5982681 C80.9405447,60.8088842 85.5573959,59.8953011 87.9717488,56.5195874 L89.6592667,54.1606933 C90.0966375,53.5847794 90.1908877,52.813054 89.9052965,52.1461882 C89.6197054,51.4793224 88.9994472,51.0228 88.2861802,50.954486 C87.5729131,50.886172 86.8794605,51.2168723 86.4759975,51.8177432 L84.7884836,54.1762386 C83.5662851,55.8850218 81.2983933,56.3310512 79.5341712,55.2117923 L68.4886124,48.2052632 C68.1555227,47.986818 67.7651523,47.8756646 67.3687165,47.886386 L67.3687165,47.8859874 Z" id="Path"></path> <path d="M63.5564651,55.8579172 C62.6467966,55.8272512 61.8352079,56.434016 61.5943477,57.324847 C61.3534875,58.215678 61.7462721,59.1578771 62.5439536,59.6027312 L71.510799,64.8032196 C75.084486,66.8759214 79.6705863,65.8794302 82.0884581,62.4985347 L83.8219962,60.0698863 C84.4617408,59.1777222 84.2677572,57.9281193 83.3887217,57.27882 C82.5096861,56.6295207 81.2784716,56.8264015 80.6387271,57.7185656 L78.905189,60.155186 C77.6471774,61.9141923 75.3261648,62.4172211 73.4667839,61.3386189 L64.4922684,56.1381305 C64.2083614,55.9668603 63.8865329,55.8709044 63.5564651,55.859113 L63.5564651,55.8579172 Z" id="Path"></path> <path d="M54.405527,62.078414 L52.9941461,65.8072842 L64.7760754,70.3692211 C67.7536949,71.5239551 71.1538891,70.4130667 72.8991659,67.7069951 L74.6173639,65.0367972 L71.3267064,62.8489011 L69.6085084,65.5190989 C68.8636705,66.6746302 67.4505498,67.1330161 66.1797823,66.6403509 L54.405527,62.078414 L54.405527,62.078414 Z" id="Path"></path> </g> </g> </g> </g> </g> </svg>