<svg width="88px" height="88px" viewBox="0 0 88 88" version="1.1" xmlns="http://www.w3.org/2000/svg" xmlns:xlink="http://www.w3.org/1999/xlink"><title>Icon money</title><g id="Page-1" stroke="none" stroke-width="1" fill="none" fill-rule="evenodd"> <g id="Kafene---Home-Page---Candidate-5.4.4" transform="translate(-1064.000000, -1147.000000)" fill="#5AD9AC" fill-rule="nonzero"> <g id="Group-2" transform="translate(205.000000, 1147.000000)"> <g id="icon-time-is-money" transform="translate(859.000000, 0.000000)"> <g id="Group"> <path d="M58.6666667,29.3333333 C58.6666667,13.1589333 45.5077333,0 29.3333333,0 C13.1589333,0 0,13.1589333 0,29.3333333 C0,45.5077333 13.1589333,58.6666667 29.3333333,58.6666667 C29.3333333,74.8410667 42.4922667,88 58.6666667,88 C74.8410667,88 88,74.8410667 88,58.6666667 C88,42.4922667 74.8410667,29.3333333 58.6666667,29.3333333 Z M29.3333333,53.7777778 C15.8546667,53.7777778 4.88888889,42.812 4.88888889,29.3333333 C4.88888889,15.8546667 15.8546667,4.88888889 29.3333333,4.88888889 C42.812,4.88888889 53.7777778,15.8546667 53.7777778,29.3333333 C53.7777778,29.4731556 53.7689778,29.6110222 53.7670222,29.7508444 C49.6916444,30.4392 45.8998222,31.9694222 42.5773333,34.1576889 L31.7777778,27.9224 L31.7777778,7.1896 L26.8888889,7.1896 L26.8888889,30.7452444 L38.4648,37.4293333 C33.9699556,41.7071111 30.8273778,47.3899556 29.7498667,53.768 C29.6110222,53.7689778 29.4731556,53.7777778 29.3333333,53.7777778 Z M58.6666667,83.1111111 C45.188,83.1111111 34.2222222,72.1453333 34.2222222,58.6666667 C34.2222222,45.188 45.188,34.2222222 58.6666667,34.2222222 C72.1453333,34.2222222 83.1111111,45.188 83.1111111,58.6666667 C83.1111111,72.1453333 72.1453333,83.1111111 58.6666667,83.1111111 Z" id="Shape"></path> <path d="M61.1111111,55.6629333 L61.1111111,47.3635556 C62.2384889,48.2034667 62.9806222,49.5352 62.9806222,51.0458667 L67.8695111,51.0458667 C67.8695111,46.7632 65.0153778,43.1376 61.1111111,41.9603556 L61.1111111,36.3782222 L56.2222222,36.3782222 L56.2222222,41.8127111 C52.0265778,42.7934222 48.8888889,46.5568889 48.8888889,51.0458667 C48.8888889,55.5348444 52.0265778,59.2973333 56.2222222,60.2780444 L56.2222222,70.5916444 C54.4348444,69.6920889 53.2028444,67.8450667 53.2028444,65.7125333 L48.3139556,65.7125333 C48.3139556,70.5779556 51.6921778,74.6582222 56.2222222,75.7611556 L56.2222222,80.6666667 L61.1111111,80.6666667 L61.1111111,75.7611556 C65.6411556,74.6582222 69.0193778,70.5769778 69.0193778,65.7125333 C69.0193778,60.8461333 65.6411556,56.7658667 61.1111111,55.6629333 Z M56.2222222,55.0850667 C54.7760889,54.3087111 53.7777778,52.8 53.7777778,51.0458667 C53.7777778,49.2917333 54.7760889,47.7830222 56.2222222,47.0066667 L56.2222222,55.0850667 Z M61.1111111,70.5916444 L61.1111111,60.8324444 C62.8984889,61.732 64.1304889,63.5790222 64.1304889,65.7125333 C64.1304889,67.8460444 62.8984889,69.6920889 61.1111111,70.5916444 Z" id="Shape"></path> </g> </g> </g> </g> </g> </svg>