<svg width="66px" height="88px" viewBox="0 0 66 88" version="1.1" xmlns="http://www.w3.org/2000/svg" xmlns:xlink="http://www.w3.org/1999/xlink"><title>Icon document</title><g id="Page-1" stroke="none" stroke-width="1" fill="none" fill-rule="evenodd"> <g id="Kafene---Home-Page---Candidate-5.4.4" transform="translate(-313.000000, -1147.000000)" fill="#5AD9AC" fill-rule="nonzero"> <g id="Group-2" transform="translate(205.000000, 1147.000000)"> <g id="noun_Approve_2008949" transform="translate(108.000000, 0.000000)"> <path d="M64.2162162,0 L1.78378378,0 C0.798627203,0 0,0.820811292 0,1.83333333 L0,86.1666667 C0,87.1791887 0.798627203,88 1.78378378,88 L64.2162162,88 C65.2013728,88 66,87.1791887 66,86.1666667 L66,1.83333333 C66,0.820811292 65.2013728,0 64.2162162,0 Z M62.4324324,84.3333333 L3.56756757,84.3333333 L3.56756757,3.66666667 L62.4324324,3.66666667 L62.4324324,84.3333333 Z M15.1621622,55 C15.1621622,65.1252204 23.1484342,73.3333333 33,73.3333333 C42.8515658,73.3333333 50.8378378,65.1252204 50.8378378,55 C50.8378378,44.8747796 42.8515658,36.6666667 33,36.6666667 C23.1484342,36.6666667 15.1621622,44.8747796 15.1621622,55 Z M47.2702703,55 C47.2702703,63.1001763 40.8812526,69.6666667 33,69.6666667 C25.1187474,69.6666667 18.7297297,63.1001763 18.7297297,55 C18.7297297,46.8998237 25.1187474,40.3333333 33,40.3333333 C40.8812526,40.3333333 47.2702703,46.8998237 47.2702703,55 Z M11.5945946,14.6666667 C11.5945946,13.6541446 12.3932218,12.8333333 13.3783784,12.8333333 L41.9189189,12.8333333 C42.9040755,12.8333333 43.7027027,13.6541446 43.7027027,14.6666667 C43.7027027,15.6791887 42.9040755,16.5 41.9189189,16.5 L13.3783784,16.5 C12.3932218,16.5 11.5945946,15.6791887 11.5945946,14.6666667 Z M11.5945946,23.8333333 C11.5945946,22.8208113 12.3932218,22 13.3783784,22 L22.2972973,22 C23.2824539,22 24.0810811,22.8208113 24.0810811,23.8333333 C24.0810811,24.8458554 23.2824539,25.6666667 22.2972973,25.6666667 L13.3783784,25.6666667 C12.3932218,25.6666667 11.5945946,24.8458554 11.5945946,23.8333333 Z M31.2162162,59.7483333 L40.6524324,50.0316667 C41.3518936,49.3127761 42.4859442,49.3127761 43.1854054,50.0316667 C43.8848665,50.7505573 43.8848665,51.9161093 43.1854054,52.635 L32.4827027,63.635 C32.1477677,63.9820732 31.6918399,64.1772969 31.2162162,64.1772969 C30.7405925,64.1772969 30.2846647,63.9820732 29.9497297,63.635 L24.5983784,58.135 C24.1459063,57.6699593 23.9691959,56.9921477 24.1348122,56.3568903 C24.3004284,55.7216328 24.7832103,55.2254403 25.4012986,55.0552236 C26.0193869,54.8850069 26.6788793,55.066626 27.1313514,55.5316667 L31.2162162,59.7483333 Z" id="Shape"></path> </g> </g> </g> </g> </svg>